<mxfile host="app.diagrams.net" agent="Mozilla/5.0 (Windows NT 10.0; Win64; x64) AppleWebKit/537.36 (KHTML, like Gecko) Chrome/136.0.0.0 Safari/537.36 Avast/136.0.0.0" version="27.1.4">
  <diagram name="Page-1" id="UGwQgd-kwqwegZzs-4OC">
    <mxGraphModel dx="1042" dy="1696" grid="1" gridSize="10" guides="1" tooltips="1" connect="1" arrows="1" fold="1" page="1" pageScale="1" pageWidth="827" pageHeight="1169" math="0" shadow="0">
      <root>
        <mxCell id="0" />
        <mxCell id="1" parent="0" />
        <mxCell id="GKOCN2niQwNzejgxNynE-1" value="&lt;p style=&quot;margin:0px;margin-top:4px;text-align:center;&quot;&gt;&lt;i&gt;DJELATNIK&lt;/i&gt;&lt;/p&gt;&lt;hr size=&quot;1&quot; style=&quot;border-style:solid;&quot;&gt;&lt;p style=&quot;margin:0px;margin-left:4px;&quot;&gt;ID&lt;/p&gt;&lt;p style=&quot;margin:0px;margin-left:4px;&quot;&gt;korisinicko_ime&lt;/p&gt;&lt;p style=&quot;margin:0px;margin-left:4px;&quot;&gt;emial&lt;/p&gt;&lt;hr size=&quot;1&quot; style=&quot;border-style:solid;&quot;&gt;&lt;p style=&quot;margin:0px;margin-left:4px;&quot;&gt;zaprimanjeNarudžbe()&lt;/p&gt;&lt;p style=&quot;margin:0px;margin-left:4px;&quot;&gt;pregledNarudžbi()&lt;/p&gt;&lt;p style=&quot;margin:0px;margin-left:4px;&quot;&gt;prijava()&lt;/p&gt;&lt;p style=&quot;margin:0px;margin-left:4px;&quot;&gt;odjava()&lt;/p&gt;&lt;p style=&quot;margin:0px;margin-left:4px;&quot;&gt;&lt;br&gt;&lt;/p&gt;" style="verticalAlign=top;align=left;overflow=fill;html=1;whiteSpace=wrap;" parent="1" vertex="1">
          <mxGeometry x="30" y="40" width="190" height="170" as="geometry" />
        </mxCell>
        <mxCell id="GKOCN2niQwNzejgxNynE-3" value="&lt;p style=&quot;margin:0px;margin-top:4px;text-align:center;&quot;&gt;RAČUN&lt;/p&gt;&lt;hr size=&quot;1&quot; style=&quot;border-style:solid;&quot;&gt;&lt;p style=&quot;margin:0px;margin-left:4px;&quot;&gt;ID&lt;/p&gt;&lt;p style=&quot;margin:0px;margin-left:4px;&quot;&gt;datum&lt;/p&gt;&lt;p style=&quot;margin:0px;margin-left:4px;&quot;&gt;vrijednost&lt;/p&gt;&lt;p style=&quot;margin:0px;margin-left:4px;&quot;&gt;nacin_plaćanja&lt;/p&gt;&lt;hr size=&quot;1&quot; style=&quot;border-style:solid;&quot;&gt;&lt;p style=&quot;margin:0px;margin-left:4px;&quot;&gt;izracunajIznos()&lt;/p&gt;&lt;p style=&quot;margin:0px;margin-left:4px;&quot;&gt;generirajPDF()&lt;/p&gt;&lt;p style=&quot;margin:0px;margin-left:4px;&quot;&gt;&lt;br&gt;&lt;/p&gt;" style="verticalAlign=top;align=left;overflow=fill;html=1;whiteSpace=wrap;" parent="1" vertex="1">
          <mxGeometry x="590" y="28" width="190" height="130" as="geometry" />
        </mxCell>
        <mxCell id="GKOCN2niQwNzejgxNynE-4" value="&lt;p style=&quot;margin:0px;margin-top:4px;text-align:center;&quot;&gt;&lt;i&gt;NARUDŽBA&lt;/i&gt;&lt;/p&gt;&lt;hr size=&quot;1&quot; style=&quot;border-style:solid;&quot;&gt;&lt;p style=&quot;margin:0px;margin-left:4px;&quot;&gt;ID&lt;/p&gt;&lt;p style=&quot;margin:0px;margin-left:4px;&quot;&gt;datumVrijeme&lt;/p&gt;&lt;p style=&quot;margin:0px;margin-left:4px;&quot;&gt;ukupanIznos&lt;/p&gt;&lt;hr size=&quot;1&quot; style=&quot;border-style:solid;&quot;&gt;&lt;p style=&quot;margin:0px;margin-left:4px;&quot;&gt;dodajVino()&lt;/p&gt;&lt;p style=&quot;margin:0px;margin-left:4px;&quot;&gt;ukloniVino)&lt;/p&gt;&lt;p style=&quot;margin:0px;margin-left:4px;&quot;&gt;potvrdiNarudžbu()&lt;/p&gt;&lt;p style=&quot;margin:0px;margin-left:4px;&quot;&gt;&lt;br&gt;&lt;/p&gt;" style="verticalAlign=top;align=left;overflow=fill;html=1;whiteSpace=wrap;" parent="1" vertex="1">
          <mxGeometry x="310" y="40" width="190" height="130" as="geometry" />
        </mxCell>
        <mxCell id="GKOCN2niQwNzejgxNynE-5" value="&lt;p style=&quot;margin:0px;margin-top:4px;text-align:center;&quot;&gt;&lt;i&gt;VINO&lt;/i&gt;&lt;/p&gt;&lt;hr size=&quot;1&quot; style=&quot;border-style:solid;&quot;&gt;&lt;p style=&quot;margin:0px;margin-left:4px;&quot;&gt;ID&lt;/p&gt;&lt;p style=&quot;margin:0px;margin-left:4px;&quot;&gt;naziv&lt;/p&gt;&lt;p style=&quot;margin:0px;margin-left:4px;&quot;&gt;cijena&lt;/p&gt;&lt;hr size=&quot;1&quot; style=&quot;border-style:solid;&quot;&gt;&lt;p style=&quot;margin:0px;margin-left:4px;&quot;&gt;provjeriZalihe()&lt;/p&gt;&lt;p style=&quot;margin:0px;margin-left:4px;&quot;&gt;ažurirajCijenu()&lt;/p&gt;&lt;p style=&quot;margin:0px;margin-left:4px;&quot;&gt;&lt;br&gt;&lt;/p&gt;" style="verticalAlign=top;align=left;overflow=fill;html=1;whiteSpace=wrap;" parent="1" vertex="1">
          <mxGeometry x="310" y="-270" width="190" height="130" as="geometry" />
        </mxCell>
        <mxCell id="GKOCN2niQwNzejgxNynE-6" value="&lt;p style=&quot;margin:0px;margin-top:4px;text-align:center;&quot;&gt;&lt;i&gt;DOBAVLJAČ&lt;/i&gt;&lt;/p&gt;&lt;hr size=&quot;1&quot; style=&quot;border-style:solid;&quot;&gt;&lt;p style=&quot;margin:0px;margin-left:4px;&quot;&gt;ID&lt;/p&gt;&lt;p style=&quot;margin:0px;margin-left:4px;&quot;&gt;naziv&lt;/p&gt;&lt;p style=&quot;margin:0px;margin-left:4px;&quot;&gt;kontakt&lt;/p&gt;&lt;hr size=&quot;1&quot; style=&quot;border-style:solid;&quot;&gt;&lt;p style=&quot;margin:0px;margin-left:4px;&quot;&gt;isporučiVino()&lt;/p&gt;&lt;p style=&quot;margin:0px;margin-left:4px;&quot;&gt;ažurirajInformacije()&lt;/p&gt;" style="verticalAlign=top;align=left;overflow=fill;html=1;whiteSpace=wrap;" parent="1" vertex="1">
          <mxGeometry x="630" y="-272" width="190" height="130" as="geometry" />
        </mxCell>
        <mxCell id="GKOCN2niQwNzejgxNynE-7" value="&lt;p style=&quot;margin:0px;margin-top:4px;text-align:center;&quot;&gt;&lt;i&gt;ADMINISTRATOR&lt;/i&gt;&lt;/p&gt;&lt;hr size=&quot;1&quot; style=&quot;border-style:solid;&quot;&gt;&lt;p style=&quot;margin:0px;margin-left:4px;&quot;&gt;ID&lt;/p&gt;&lt;p style=&quot;margin:0px;margin-left:4px;&quot;&gt;ime&lt;/p&gt;&lt;hr size=&quot;1&quot; style=&quot;border-style:solid;&quot;&gt;&lt;p style=&quot;margin:0px;margin-left:4px;&quot;&gt;upravljanjeKupcima()&lt;/p&gt;&lt;p style=&quot;margin:0px;margin-left:4px;&quot;&gt;upravljanjeDjelatnicima()&lt;/p&gt;&lt;p style=&quot;margin:0px;margin-left:4px;&quot;&gt;pregledIzvještaja()&lt;/p&gt;&lt;p style=&quot;margin:0px;margin-left:4px;&quot;&gt;&lt;br&gt;&lt;/p&gt;" style="verticalAlign=top;align=left;overflow=fill;html=1;whiteSpace=wrap;" parent="1" vertex="1">
          <mxGeometry x="311.25" y="500" width="190" height="130" as="geometry" />
        </mxCell>
        <mxCell id="GKOCN2niQwNzejgxNynE-8" value="" style="endArrow=none;html=1;rounded=0;exitX=0.153;exitY=0.764;exitDx=0;exitDy=0;exitPerimeter=0;entryX=-0.007;entryY=0.617;entryDx=0;entryDy=0;entryPerimeter=0;" parent="1" source="GKOCN2niQwNzejgxNynE-9" target="GKOCN2niQwNzejgxNynE-4" edge="1">
          <mxGeometry width="50" height="50" relative="1" as="geometry">
            <mxPoint x="540" y="170" as="sourcePoint" />
            <mxPoint x="590" y="120" as="targetPoint" />
          </mxGeometry>
        </mxCell>
        <mxCell id="GKOCN2niQwNzejgxNynE-9" value="1" style="text;html=1;align=center;verticalAlign=middle;resizable=0;points=[];autosize=1;strokeColor=none;fillColor=none;" parent="1" vertex="1">
          <mxGeometry x="215" y="98" width="30" height="30" as="geometry" />
        </mxCell>
        <mxCell id="GKOCN2niQwNzejgxNynE-10" value="*" style="text;html=1;align=center;verticalAlign=middle;resizable=0;points=[];autosize=1;strokeColor=none;fillColor=none;" parent="1" vertex="1">
          <mxGeometry x="285" y="98" width="30" height="30" as="geometry" />
        </mxCell>
        <mxCell id="GKOCN2niQwNzejgxNynE-11" value="" style="endArrow=none;html=1;rounded=0;exitX=1.001;exitY=0.623;exitDx=0;exitDy=0;exitPerimeter=0;" parent="1" source="GKOCN2niQwNzejgxNynE-4" edge="1">
          <mxGeometry width="50" height="50" relative="1" as="geometry">
            <mxPoint x="540" y="220" as="sourcePoint" />
            <mxPoint x="590" y="120" as="targetPoint" />
          </mxGeometry>
        </mxCell>
        <mxCell id="GKOCN2niQwNzejgxNynE-12" value="1" style="text;html=1;align=center;verticalAlign=middle;resizable=0;points=[];autosize=1;strokeColor=none;fillColor=none;" parent="1" vertex="1">
          <mxGeometry x="495" y="98" width="30" height="30" as="geometry" />
        </mxCell>
        <mxCell id="GKOCN2niQwNzejgxNynE-13" value="*" style="text;html=1;align=center;verticalAlign=middle;resizable=0;points=[];autosize=1;strokeColor=none;fillColor=none;" parent="1" vertex="1">
          <mxGeometry x="565" y="98" width="30" height="30" as="geometry" />
        </mxCell>
        <mxCell id="GKOCN2niQwNzejgxNynE-14" value="" style="endArrow=none;html=1;rounded=0;entryX=0.5;entryY=0;entryDx=0;entryDy=0;" parent="1" source="GKOCN2niQwNzejgxNynE-25" target="GKOCN2niQwNzejgxNynE-4" edge="1">
          <mxGeometry width="50" height="50" relative="1" as="geometry">
            <mxPoint x="405" y="-10" as="sourcePoint" />
            <mxPoint x="460" y="160" as="targetPoint" />
          </mxGeometry>
        </mxCell>
        <mxCell id="GKOCN2niQwNzejgxNynE-15" value="1" style="text;html=1;align=center;verticalAlign=middle;resizable=0;points=[];autosize=1;strokeColor=none;fillColor=none;" parent="1" vertex="1">
          <mxGeometry x="380" y="10" width="30" height="30" as="geometry" />
        </mxCell>
        <mxCell id="GKOCN2niQwNzejgxNynE-16" value="*" style="text;html=1;align=center;verticalAlign=middle;resizable=0;points=[];autosize=1;strokeColor=none;fillColor=none;" parent="1" vertex="1">
          <mxGeometry x="380" y="-20" width="30" height="30" as="geometry" />
        </mxCell>
        <mxCell id="GKOCN2niQwNzejgxNynE-18" value="1" style="text;html=1;align=center;verticalAlign=middle;resizable=0;points=[];autosize=1;strokeColor=none;fillColor=none;" parent="1" vertex="1">
          <mxGeometry x="410" y="470" width="30" height="30" as="geometry" />
        </mxCell>
        <mxCell id="GKOCN2niQwNzejgxNynE-19" value="*" style="text;html=1;align=center;verticalAlign=middle;resizable=0;points=[];autosize=1;strokeColor=none;fillColor=none;" parent="1" vertex="1">
          <mxGeometry x="410" y="410" width="30" height="30" as="geometry" />
        </mxCell>
        <mxCell id="GKOCN2niQwNzejgxNynE-25" value="&lt;p style=&quot;margin:0px;margin-top:4px;text-align:center;&quot;&gt;&lt;i&gt;NARUDŽBA_VINO&lt;/i&gt;&lt;/p&gt;&lt;hr size=&quot;1&quot; style=&quot;border-style:solid;&quot;&gt;&lt;p style=&quot;margin:0px;margin-left:4px;&quot;&gt;ID_narudžba&lt;/p&gt;&lt;p style=&quot;margin:0px;margin-left:4px;&quot;&gt;ID_vina&lt;/p&gt;" style="verticalAlign=top;align=left;overflow=fill;html=1;whiteSpace=wrap;" parent="1" vertex="1">
          <mxGeometry x="320" y="-80" width="170" height="60" as="geometry" />
        </mxCell>
        <mxCell id="GKOCN2niQwNzejgxNynE-26" value="" style="endArrow=none;html=1;rounded=0;exitX=0.5;exitY=0;exitDx=0;exitDy=0;entryX=0.5;entryY=1;entryDx=0;entryDy=0;" parent="1" source="GKOCN2niQwNzejgxNynE-25" target="GKOCN2niQwNzejgxNynE-5" edge="1">
          <mxGeometry width="50" height="50" relative="1" as="geometry">
            <mxPoint x="270" y="-120" as="sourcePoint" />
            <mxPoint x="320" y="-170" as="targetPoint" />
          </mxGeometry>
        </mxCell>
        <mxCell id="GKOCN2niQwNzejgxNynE-27" value="*" style="text;html=1;align=center;verticalAlign=middle;resizable=0;points=[];autosize=1;strokeColor=none;fillColor=none;" parent="1" vertex="1">
          <mxGeometry x="385" y="-102" width="30" height="30" as="geometry" />
        </mxCell>
        <mxCell id="GKOCN2niQwNzejgxNynE-28" value="1" style="text;html=1;align=center;verticalAlign=middle;resizable=0;points=[];autosize=1;strokeColor=none;fillColor=none;" parent="1" vertex="1">
          <mxGeometry x="385" y="-142" width="30" height="30" as="geometry" />
        </mxCell>
        <mxCell id="GKOCN2niQwNzejgxNynE-29" value="" style="endArrow=none;html=1;rounded=0;exitX=1;exitY=0.5;exitDx=0;exitDy=0;entryX=0;entryY=0.5;entryDx=0;entryDy=0;" parent="1" source="GKOCN2niQwNzejgxNynE-5" target="GKOCN2niQwNzejgxNynE-6" edge="1">
          <mxGeometry width="50" height="50" relative="1" as="geometry">
            <mxPoint x="580" y="-100" as="sourcePoint" />
            <mxPoint x="630" y="-150" as="targetPoint" />
          </mxGeometry>
        </mxCell>
        <mxCell id="GKOCN2niQwNzejgxNynE-30" value="*" style="text;html=1;align=center;verticalAlign=middle;resizable=0;points=[];autosize=1;strokeColor=none;fillColor=none;" parent="1" vertex="1">
          <mxGeometry x="495" y="-232" width="30" height="30" as="geometry" />
        </mxCell>
        <mxCell id="GKOCN2niQwNzejgxNynE-31" value="*" style="text;html=1;align=center;verticalAlign=middle;resizable=0;points=[];autosize=1;strokeColor=none;fillColor=none;" parent="1" vertex="1">
          <mxGeometry x="665" y="-232" width="30" height="30" as="geometry" />
        </mxCell>
        <mxCell id="GKOCN2niQwNzejgxNynE-32" value="" style="endArrow=none;html=1;rounded=0;exitX=0.5;exitY=0;exitDx=0;exitDy=0;" parent="1" source="GKOCN2niQwNzejgxNynE-7" edge="1">
          <mxGeometry width="50" height="50" relative="1" as="geometry">
            <mxPoint x="570" y="420" as="sourcePoint" />
            <mxPoint x="405" y="410" as="targetPoint" />
          </mxGeometry>
        </mxCell>
        <mxCell id="GKOCN2niQwNzejgxNynE-33" value="" style="endArrow=none;html=1;rounded=0;entryX=0.25;entryY=1;entryDx=0;entryDy=0;" parent="1" target="GKOCN2niQwNzejgxNynE-1" edge="1">
          <mxGeometry width="50" height="50" relative="1" as="geometry">
            <mxPoint x="80" y="560" as="sourcePoint" />
            <mxPoint x="170" y="520" as="targetPoint" />
            <Array as="points" />
          </mxGeometry>
        </mxCell>
        <mxCell id="GKOCN2niQwNzejgxNynE-34" value="1" style="text;html=1;align=center;verticalAlign=middle;resizable=0;points=[];autosize=1;strokeColor=none;fillColor=none;" parent="1" vertex="1">
          <mxGeometry x="280" y="510" width="30" height="30" as="geometry" />
        </mxCell>
        <mxCell id="GKOCN2niQwNzejgxNynE-35" value="*" style="text;html=1;align=center;verticalAlign=middle;resizable=0;points=[];autosize=1;strokeColor=none;fillColor=none;" parent="1" vertex="1">
          <mxGeometry x="55" y="218" width="30" height="30" as="geometry" />
        </mxCell>
        <mxCell id="GKOCN2niQwNzejgxNynE-36" value="" style="endArrow=none;html=1;rounded=0;" parent="1" edge="1">
          <mxGeometry width="50" height="50" relative="1" as="geometry">
            <mxPoint x="80" y="560" as="sourcePoint" />
            <mxPoint x="310" y="560" as="targetPoint" />
          </mxGeometry>
        </mxCell>
        <mxCell id="twSpi6fElA4aeGGhyYyv-1" value="&lt;p style=&quot;margin:0px;margin-top:4px;text-align:center;&quot;&gt;&lt;i&gt;KUPAC&lt;/i&gt;&lt;/p&gt;&lt;hr size=&quot;1&quot; style=&quot;border-style:solid;&quot;&gt;&lt;p style=&quot;margin:0px;margin-left:4px;&quot;&gt;ID&lt;/p&gt;&lt;p style=&quot;margin:0px;margin-left:4px;&quot;&gt;korisinicko_ime&lt;/p&gt;&lt;p style=&quot;margin:0px;margin-left:4px;&quot;&gt;emial&lt;/p&gt;&lt;hr size=&quot;1&quot; style=&quot;border-style:solid;&quot;&gt;&lt;p style=&quot;margin:0px;margin-left:4px;&quot;&gt;zahtjevZaNarudžbu()&lt;/p&gt;&lt;p style=&quot;margin:0px;margin-left:4px;&quot;&gt;pregledNarudžbe()&lt;/p&gt;&lt;p style=&quot;margin:0px;margin-left:4px;&quot;&gt;prijava()&lt;/p&gt;&lt;p style=&quot;margin:0px;margin-left:4px;&quot;&gt;odjava()&lt;/p&gt;&lt;p style=&quot;margin:0px;margin-left:4px;&quot;&gt;&lt;br&gt;&lt;/p&gt;" style="verticalAlign=top;align=left;overflow=fill;html=1;whiteSpace=wrap;" vertex="1" parent="1">
          <mxGeometry x="310" y="258" width="192.5" height="152" as="geometry" />
        </mxCell>
        <mxCell id="twSpi6fElA4aeGGhyYyv-2" value="1" style="text;html=1;align=center;verticalAlign=middle;resizable=0;points=[];autosize=1;strokeColor=none;fillColor=none;" vertex="1" parent="1">
          <mxGeometry x="607" y="-232" width="30" height="30" as="geometry" />
        </mxCell>
        <mxCell id="twSpi6fElA4aeGGhyYyv-3" value="" style="endArrow=none;html=1;rounded=0;exitX=0.5;exitY=0;exitDx=0;exitDy=0;entryX=0.5;entryY=1;entryDx=0;entryDy=0;" edge="1" parent="1" source="twSpi6fElA4aeGGhyYyv-1" target="GKOCN2niQwNzejgxNynE-4">
          <mxGeometry width="50" height="50" relative="1" as="geometry">
            <mxPoint x="390" y="230" as="sourcePoint" />
            <mxPoint x="440" y="180" as="targetPoint" />
          </mxGeometry>
        </mxCell>
        <mxCell id="twSpi6fElA4aeGGhyYyv-4" value="*" style="text;html=1;align=center;verticalAlign=middle;resizable=0;points=[];autosize=1;strokeColor=none;fillColor=none;" vertex="1" parent="1">
          <mxGeometry x="405" y="168" width="30" height="30" as="geometry" />
        </mxCell>
        <mxCell id="twSpi6fElA4aeGGhyYyv-5" value="1" style="text;html=1;align=center;verticalAlign=middle;resizable=0;points=[];autosize=1;strokeColor=none;fillColor=none;" vertex="1" parent="1">
          <mxGeometry x="405" y="228" width="30" height="30" as="geometry" />
        </mxCell>
      </root>
    </mxGraphModel>
  </diagram>
</mxfile>
